<?xml version="1.0" encoding="utf-8"?>
<!-- Generator: Adobe Illustrator 19.2.1, SVG Export Plug-In . SVG Version: 6.00 Build 0)  -->
<svg version="1.1" id="Layer_1" xmlns="http://www.w3.org/2000/svg" xmlns:xlink="http://www.w3.org/1999/xlink" x="0px" y="0px"
	 viewBox="0 0 620 154" style="enable-background:new 0 0 620 154;" xml:space="preserve">
<style type="text/css">
	.st0{fill:#010101;}
	.st1{fill:#C52D55;}
	.st2{fill:#01B0AD;}
	.st3{fill:#040404;}
	.st4{fill:#FECD43;}
	.st5{fill:#F05A44;}
	.st6{fill:#030303;}
</style>
<path class="st0" d="M357.9,137.1c-1.2-0.5-2.4-0.3-3.6-0.5c-4.7-0.5-9.4-1.1-13.9-2.7c-0.9-0.3-1.2-0.7-1-1.8
	c0.8-4.3,1.4-8.7,2.1-13.1c3.5,1.2,6.9,2.2,10.5,2.8c4.8,0.8,9.6,1.2,14.4-0.1c6.1-1.7,9.3-6.1,9.1-12.4c0-1-0.1-1.3-1.3-1
	c-6.7,2.1-13.5,2.7-20.3,0.9c-9.9-2.7-15.7-9.3-17.4-19.4c-1-6.3-1.1-12.8,0.7-19c3-10.3,10.1-16.4,20.3-19c6-1.5,12-1.6,18.1-0.9
	c4.9,0.5,9.8,1.1,14.6,2.5c2.8,0.8,2.8,0.9,2.8,3.8c0,17.6,0,35.3-0.1,52.9c0,6.3-1.8,12.1-5.8,17c-4.3,5.3-10,7.9-16.5,9.1
	c-1.5,0.3-3.1,0.2-4.6,0.7c-0.2,0-0.3,0-0.5,0c-1.7-0.4-3.4,0-5-0.2c-0.4,0-0.9-0.3-1.2,0.2C358.7,137.1,358.3,137.1,357.9,137.1z
	 M375.2,79.4c0-4.5,0-8.9,0-13.4c0-0.8-0.3-1.1-1-1.3c-2-0.4-4.1-0.7-6.2-0.5c-6.1,0.4-10.7,3-13.1,8.8c-1.6,3.7-2.1,7.7-1.7,11.7
	c0.7,6.2,4.1,10.2,9.9,11.2c3.8,0.7,7.5,0,11.1-1.6c0.7-0.3,1-0.7,1-1.6C375.2,88.3,375.2,83.8,375.2,79.4z"/>
<path class="st1" d="M359.1,137.1c0.3-0.4,0.8-0.2,1.2-0.2c1.7,0.2,3.4-0.3,5,0.2C363.3,137.1,361.2,137.1,359.1,137.1z"/>
<path class="st2" d="M148.7,36.1C119.9,27.4,94.6,32.7,73,54c-20.7,23.2-24.4,49.3-13.4,78c-3,0.2-6.1,0-9.1-1
	c-8.4-2.7-14.2-10.6-14.2-19.4c0-24,0-48,0-72c0-11.2,9.2-20.4,20.4-20.4c24,0,48,0,72,0c9.4,0,17.7,6.7,19.8,15.8
	C148.6,35.5,148.7,35.8,148.7,36.1z"/>
<path class="st3" d="M543.5,21.4c0,0.6,0,1,0,1.5c0,9.6,0,19.1,0,28.7c0,1.6,0,1.5,1.4,1c7.2-2.7,14.6-2.8,21.8-0.6
	c6.2,1.9,10.5,6.2,13.1,12c5,11.3,5.6,23.1,1.4,34.7c-3.7,10-11.4,15.6-22,17c-7.5,1-15,0.4-22.5-0.6c-3.4-0.5-6.7-1.1-10-1.8
	c-0.8-0.2-1.1-0.5-1.1-1.3c0-28.8,0-57.5,0-86.3c0-0.8,0.2-1,1-1.2C532.3,23.6,537.8,22.5,543.5,21.4z M543.4,84.3L543.4,84.3
	c-0.1,5.1-0.1,10.2-0.1,15.2c0,0.7,0.1,1,0.9,1.2c2.9,0.5,5.8,0.7,8.7,0.3c4.1-0.4,7.4-2.4,9.6-5.9c4.7-7.6,4.6-15.5,0.9-23.4
	c-1.9-4-5.3-6-9.8-6.2c-3.4-0.2-6.4,0.8-9.4,2.4c-0.7,0.4-0.9,0.8-0.9,1.6C543.4,74.4,543.4,79.4,543.4,84.3z"/>
<path class="st4" d="M91.4,132c-0.2,0.1-0.6,0-0.9,0c-7.8,0-15.7,0-23.5,0c-0.9,0-1.3-0.3-1.7-1.1c-3.4-7-5.5-14.4-6.2-22.1
	c-1.6-17.2,2.7-32.9,13.2-46.6C82.9,48.4,96.8,40,114,37.2c11.6-2,23-0.7,34.1,3.4c0.6,0.2,1.1,0.5,1.1,1.3c0,8,0,16.1,0,24.1
	c0,0.1,0,0.2-0.1,0.5c-9.8-6.4-20.3-8.9-31.9-7.1c-11.5,1.9-21.1,7.3-27.8,16.8C76.2,95.3,77.8,113.9,91.4,132z"/>
<path class="st5" d="M149.1,92.8c0,6.3,0,12.6,0,19c0,1.3,0,1.4-1.2,0.8c-1.8-0.9-3.6-1.8-5.4-2.6c-0.7-0.3-0.8-0.7-0.5-1.4
	c3.2-10-2.7-20-13-22.2c-9.3-2-18.6,4.3-20.4,13.8c-1.7,9.3,4.7,18.5,14.1,20c1.7,0.3,3.4,0.3,5.1,0.1c0.7-0.1,0.8,0.1,0.9,0.7
	c0.9,3.4,1.8,6.7,2.7,10.1c0.2,0.7,0.1,1-0.7,1c-0.9,0-1.8,0.1-2.6,0.1c-9,0-18.1,0-27.1,0c-0.8,0-1.4-0.2-2-0.8
	c-7.6-6.9-12-15.4-12.9-25.6c-1.6-19.7,11.4-37.1,30.7-41c11.6-2.3,22.1,0.4,31.5,7.6c0.5,0.4,0.7,0.9,0.7,1.5
	C149.1,80.2,149.1,86.5,149.1,92.8z"/>
<path class="st3" d="M509.1,93.1c0,6.4,0,12.7,0,19.1c0,0.8-0.1,1.2-1,1.3c-8.4,1.2-16.8,2.2-25.3,2.2c-3.4,0-6.9,0.3-10.3-0.5
	c-8.5-1.9-14.6-6.5-17.1-15.1c-2.5-8.8,1.8-17.4,10.4-21.6c3.8-1.8,7.9-2.7,12-2.8c4.4-0.2,8.8-0.2,13.2,0.5c0.8,0.1,1,0,1-0.8
	c0.2-5.6-2.7-9.1-8.5-10.1c-4.9-0.8-9.6-0.2-14.4,0.6c-1.6,0.3-3.3,0.6-4.9,1.1c-1.1,0.3-1.3,0-1.5-1c-0.5-3.6-1-7.3-1.5-10.9
	c-0.3-2.3-0.3-2.3,2-2.8c7-1.5,14-2.6,21.1-2.5c3.9,0.1,7.6,0.6,11.3,2c6.3,2.5,9.8,7.4,11.6,13.7c1.3,4.3,1.6,8.8,1.7,13.3
	C509.1,83.6,509.1,88.4,509.1,93.1L509.1,93.1z M492.1,94.9c-0.1,0-0.1,0-0.2,0c0-2,0-3.9,0-5.9c0-0.7-0.1-1.1-0.9-1.1
	c-2.9-0.1-5.8-0.2-8.7-0.3c-1.8,0-3.5,0.3-5.1,1c-2.1,0.9-3.7,2.3-4.2,4.7c-0.9,4.2,2.5,8.4,7.1,8.5c3.8,0.1,7.5,0,11.3,0
	c0.8,0,0.9-0.3,0.9-1C492,98.9,492.1,96.9,492.1,94.9z"/>
<path class="st0" d="M305.3,76.8c0.7-5.6-3-10.6-8.7-11.7c-3.8-0.8-7.6-0.3-11.5,0.1c-2.7,0.3-5.4,0.9-7.9,1.7
	c-0.5,0.2-0.8,0.2-0.9-0.5c-0.6-4.2-1.2-8.5-1.8-12.7c-0.1-0.6,0.3-0.6,0.7-0.7c4.9-1.1,9.8-2,14.7-2.6c4.3-0.5,8.7-0.7,13,0
	c9.5,1.4,15.2,6.6,17.6,16c1,4.1,1.4,8.4,1.4,12.6c0,11,0,22.1,0.1,33.1c0,0.9-0.2,1.2-1.1,1.3c-8.5,1.2-17,2.1-25.5,2.2
	c-4.7,0-9.4-0.2-14-1.6c-2.6-0.8-5-2-7.2-3.8c-2.9-2.4-4.7-5.5-5.3-9.3c-0.5-3.3-1-6.6-0.4-9.9c1.4-6.8,5.7-10.8,12-13.1
	c3.2-1.1,6.5-1.7,9.9-1.9C295.3,76,300.3,76,305.3,76.8z M305.4,95.1c-0.1,0-0.1,0-0.2,0c0-2.1,0-4.2,0-6.4c0-0.5,0-0.8-0.7-0.8
	c-3.5,0-6.9-0.5-10.4-0.2c-2.1,0.1-4,0.6-5.7,1.9c-2.1,1.6-3.2,3.7-2.7,6.3c0.6,3.7,3.8,6.3,7.7,6.4c3.7,0,7.4-0.1,11-0.1
	c0.8,0,1-0.2,1-1C305.3,99.2,305.4,97.2,305.4,95.1z"/>
<path class="st0" d="M201.9,84.5c0-9.8,0-19.5,0-29.3c0-0.8,0.1-1.2,1-1.3c6-0.9,12-2.1,18.1-2.8c5.4-0.6,10.8-0.8,16.1,0.2
	c9.5,1.8,15.2,7.7,17.6,17c0.8,3.1,1.2,6.3,1.2,9.5c0,12,0,23.9,0,35.9c0,1-0.2,1.3-1.2,1.2c-5.2-0.1-10.3-0.1-15.5,0
	c-1,0-1.3-0.2-1.3-1.3c0-12.5-0.1-25,0-37.6c0-4.9-2.5-9.5-9.4-10.4c-2.8-0.4-5.5-0.1-8.2,0.3c-0.8,0.1-1.1,0.4-1.1,1.4
	c0,15.4,0,30.8,0,46.2c0,1-0.2,1.4-1.3,1.4c-4.9-0.1-9.8,0-14.8,0c-1,0-1.2-0.3-1.2-1.2C201.9,103.9,201.9,94.2,201.9,84.5z"/>
<path class="st0" d="M409.5,84.7c0-9.6,0-19.2,0-28.8c0-0.7,0.1-1.1,0.9-1.4c12.9-4.1,25.9-5,39.1-1.9c0.8,0.2,1,0.5,0.8,1.3
	c-0.9,4.2-1.7,8.5-2.4,12.7c-0.2,0.9-0.6,0.8-1.3,0.6c-4.6-1.1-9.2-1.9-14-1.8c-1.4,0-2.7,0.2-4,0.5c-1,0.2-1.2,0.6-1.2,1.6
	c0.1,15.4,0.1,30.8,0.1,46.2c0,1.1-0.3,1.3-1.3,1.3c-5.2-0.1-10.3-0.1-15.5,0c-1,0-1.3-0.2-1.3-1.2C409.5,104,409.5,94.3,409.5,84.7
	L409.5,84.7z"/>
<path class="st3" d="M166.4,83.2c0-10,0-20.1,0-30.1c0-1.2,0.3-1.4,1.5-1.4c5.3,0.1,10.6,0.1,16,0c0.9,0,1.1,0.2,1.1,1.1
	c0,20.3,0,40.6,0,60.9c0,0.9-0.3,1.1-1.1,1.1c-5.4,0-10.8,0-16.2,0c-0.9,0-1.2-0.2-1.2-1.2C166.4,103.6,166.4,93.4,166.4,83.2z"/>
<path class="st1" d="M123.4,100.6c1.1,4.2,2.2,8.3,3.3,12.3c0,0.1,0.1,0.2,0.1,0.2c0.7,2.8,0.7,2.8-2.1,2.6
	c-6.3-0.3-11.4-5.7-11.7-12.1c-0.3-6.2,4.5-12,10.6-12.8c7.9-1.1,14.7,4.7,14.7,12.4c0,1.1-0.2,2.2-0.5,3.3
	c-0.2,0.8-0.5,0.9-1.2,0.5c-4.1-2.1-8.3-4.1-12.5-6.1C124,100.9,123.8,100.8,123.4,100.6z"/>
<path class="st0" d="M185.8,33.4c0,5.7-4.7,10.3-10.4,10.3c-5.7,0-10.4-4.7-10.4-10.4c0-5.7,4.7-10.3,10.5-10.2
	C181.3,23.1,185.9,27.7,185.8,33.4z"/>
<path class="st6" d="M131.1,109.5c4.2,2.3,8.3,4.4,12.3,6.6c1.2,0.7,2.4,1.4,3.7,2c0.8,0.4,1,0.7,0.5,1.5c-2.2,4.3-5.1,8-9.3,10.5
	c-0.9,0.5-1.2,0.5-1.5-0.6c-1.8-6.2-3.6-12.5-5.4-18.7C131.4,110.4,131.3,110,131.1,109.5z"/>
</svg>
