<?xml version="1.0" encoding="utf-8"?>
<!-- Generator: Adobe Illustrator 19.2.1, SVG Export Plug-In . SVG Version: 6.00 Build 0)  -->
<svg version="1.1" id="Layer_1" xmlns="http://www.w3.org/2000/svg" xmlns:xlink="http://www.w3.org/1999/xlink" x="0px" y="0px"
	 viewBox="0 0 168.8 153.9" style="enable-background:new 0 0 168.8 153.9;" xml:space="preserve">
<title>no entry</title>
<g>
	<g>
		<defs>
			<path id="SVGID_1_" d="M140.1,118.3c4.7,0,9.5-0.6,14.2,0.5c8.5,2.1,14.1,10.1,13.4,18.8c-0.9,8.4-7.8,15-16.3,15.5
				c-2.6,0.1-15.8,0.1-23.5,0.1c-0.4,0-0.7,0-1,0c-25.3,0-50.5,0-75.8,0c-11.5,0-18.8-7.2-18.8-18.6c0-27-0.1-54,0.1-81.1
				c0-3-0.9-3.6-3.6-3.4c-4.4,0.2-8.8,0.1-13.3,0C6,50.1,0.1,42.7,2,33.3c1.8-8.8,8.4-14.6,17.4-14.8c13.4-0.2,26.8,0,40.1,0H60
				c16.8,0,42,0,51.8,0c2,0,2.9-0.4,3.6-2.5c2.9-9.4,12.1-14.9,22.4-13.7c8.4,1,16.2,8.9,17,17.3c0.9,10.4-4.6,19.3-14.3,22
				c-2.7,0.8-3.5,1.9-3.3,4.5c0.2,2.1,0,4.3,0.1,6.4c0,0.1,0,0.3,0,0.4c0,16.6,0.1,46.7,0,62.6C137.3,117.8,138,118.3,140.1,118.3
				L140.1,118.3L140.1,118.3z M17.4,23.7c-7,1-11.8,8.2-10.3,15.5c0.9,4.1,3.4,6.2,7.7,6.2c2.4,0,4.7,0,7.1,0h1.3c10,0,10,0,9-10
				c-0.6-7.2-6.9-12.5-14-11.9C17.9,23.6,17.7,23.6,17.4,23.7L17.4,23.7z M114.6,25.5c-0.3-1.8-1.1-1.9-2.6-1.9
				c-6.4,0-12.7,0-19.1,0H31.6c5.7,5.3,5.5,11.7,5.5,18.2c-0.1,30.7-0.1,61.3,0,92c0,7.3,3.2,12.2,9,14c6.7,2.1,13.7-1.7,15.8-8.3
				c1.3-4,0.4-8.4-2.2-11.7c-0.4-0.5-0.9-1-1.3-1.4c-1.8-1.5-2.6-3.5-1.8-5.7s3-2.4,5.1-2.4c22.4,0,44.9-0.1,67.3,0.1
				c3.1,0,3.6-0.9,3.6-3.7c-0.1-15.9-0.1-46.6,0-62.4c0-0.1,0-0.1,0-0.2c0-2.3-0.1-4.6,0-6.9c0.1-1.7-0.2-2.5-2.3-3
				C121.7,39.9,116.1,34.4,114.6,25.5L114.6,25.5L114.6,25.5z M150.2,22.2C149.8,13.7,142.5,7,134,7.4c-8.1,0.4-14.6,7-14.8,15.1
				c0.2,8.4,7,15.2,15.5,15.3C143.1,37.8,150.3,30.5,150.2,22.2L150.2,22.2L150.2,22.2z M89.7,123.1H62.5c6.6,8.6,6.7,16.8-0.2,25.3
				h65.2c0.7,0,1.3,0,2,0c7.4,0,18.3,0,20.4,0c7.3-0.2,12.9-5.6,12.9-12.4c0.2-6.8-5.1-12.5-11.8-12.7c-0.2,0-0.5,0-0.7,0
				C130,123.1,109.9,123.2,89.7,123.1L89.7,123.1L89.7,123.1z M117.1,69.1c-7.7,0-15.3,0-23,0H71.8c-1.5,0-3.3,0-3.7-1.8
				c-0.5-2.4,1.1-3.1,3.3-3.1c15.2,0,30.4,0,45.6,0c1.8,0,3.3,0.5,3.3,2.6S118.7,69.1,117.1,69.1L117.1,69.1L117.1,69.1z M55.2,78.9
				c-5.6,0-7.9-2.3-7.9-8.1s2.3-8,8.3-7.9c5.7,0,7.8,2.3,7.8,8S61.2,78.9,55.2,78.9L55.2,78.9L55.2,78.9z M55.7,67.8
				c-2.2,0.1-3.6,0.3-3.4,3.1c0.1,2.2,0.3,3.6,3,3c2.3,0.4,3.4-0.2,3.3-2.8C58.5,69.1,58.4,67.7,55.7,67.8L55.7,67.8L55.7,67.8z
				 M55.5,85.6c5.9,0,8,2.2,8,8.2c0,5.7-2.1,7.7-8.1,7.7s-8-2.1-8-8.1C47.4,87.8,49.8,85.6,55.5,85.6L55.5,85.6L55.5,85.6z
				 M55.3,96.8c2.3,0,3.3-0.5,3.2-3s-0.5-3.4-3.2-3.3c-2.4,0.1-3.4,0.7-2.9,3.1C51.9,96,52.9,96.8,55.3,96.8L55.3,96.8L55.3,96.8z
				 M71.9,86.8h44.7c1.8,0,3.8,0.2,3.8,2.5s-1.8,2.5-3.7,2.5c-7.6,0-15.1,0-22.7,0c-7.3,0-14.7,0-22,0c-1.9,0-4-0.1-3.9-2.6
				C68.1,86.9,70.1,86.8,71.9,86.8L71.9,86.8z M71.6,73.1c15.1,0,30.1,0,45.2,0c1.8,0,3.5,0.3,3.5,2.3s-1.6,2.4-3.4,2.4
				c-7.6,0-15.3,0-22.9,0H71.7c-1.8,0-3.7,0-3.7-2.4C68.1,73.2,69.9,73.1,71.6,73.1L71.6,73.1L71.6,73.1z M71.7,95.7
				c7.6,0,15.1,0,22.7,0s14.9,0,22.3,0c1.9,0,3.7,0.3,3.7,2.5s-1.8,2.4-3.5,2.4c-15.1,0-30.2,0-45.3,0c-1.7,0-3.5-0.2-3.5-2.4
				S69.8,95.7,71.7,95.7L71.7,95.7L71.7,95.7z M141.9,29.1c-0.8,0.7-2.1,0.6-2.8-0.2l-10.6-10.6c-0.8-0.7-0.8-1.9-0.1-2.7
				c0,0,0,0,0.1-0.1c0.8-0.7,2.1-0.6,2.8,0.2l10.6,10.6C142.6,27,142.7,28.2,141.9,29.1C142,29,142,29.1,141.9,29.1L141.9,29.1
				L141.9,29.1z M141.8,18.4L131.1,29c-0.7,0.8-1.9,0.8-2.7,0.1c0,0,0,0-0.1,0c-0.7-0.8-0.6-2.1,0.2-2.8l10.7-10.6
				c0.7-0.8,1.9-0.8,2.7-0.1c0,0,0,0,0.1,0C142.6,16.4,142.6,17.7,141.8,18.4L141.8,18.4z"/>
		</defs>
		<use xlink:href="#SVGID_1_"  style="overflow:visible;fill:#DDDCDC;"/>
		<clipPath id="SVGID_2_">
			<use xlink:href="#SVGID_1_"  style="overflow:visible;"/>
		</clipPath>
	</g>
</g>
</svg>
