<?xml version="1.0" encoding="utf-8"?>
<!-- Generator: Adobe Illustrator 19.2.1, SVG Export Plug-In . SVG Version: 6.00 Build 0)  -->
<svg version="1.1" id="Layer_1" xmlns="http://www.w3.org/2000/svg" xmlns:xlink="http://www.w3.org/1999/xlink" x="0px" y="0px"
	 viewBox="0 0 137.8 141.7" style="enable-background:new 0 0 137.8 141.7;" xml:space="preserve">
<title>no rooms</title>
<g>
	<g>
		<defs>
			<path id="SVGID_1_" d="M130.1,127v-13.2h-26.4V127h-4.4V94c0-1.2,1-2.2,2.2-2.2h30.8c1.2,0,2.2,1,2.2,2.2v33H130.1L130.1,127z
				 M130.1,96.2h-26.4v13.2h26.4V96.2L130.1,96.2z M121.3,105h-8.8v-4.4h8.8V105L121.3,105L121.3,105z M130.1,40.5l-3.3-1.5l2.7-3.6
				l3.7,1.7c0.8,0.4,1.3,1.1,1.3,2v26.4h-4.4V40.5L130.1,40.5L130.1,40.5z M127.5,75.5c-0.4,0.6-1.1,0.9-1.8,0.9h-6.6V83h4.4v4.4
				h-13.2V83h4.4v-6.6h-6.6c-1.2,0-2.2-1-2.2-2.2c0-0.2,0-0.5,0.1-0.7l4.4-13.2c0.3-0.9,1.1-1.5,2.1-1.5h8.8c0.9,0,1.8,0.6,2.1,1.5
				l4.4,13.2C128.1,74.2,128,75,127.5,75.5L127.5,75.5L127.5,75.5z M119.8,63.2h-5.6l-2.9,8.8h11.5L119.8,63.2L119.8,63.2
				L119.8,63.2z M92.8,140.2H84c-1.2,0-2.2-1-2.2-2.2v-6.6h-66v6.6c0,1.2-1,2.2-2.2,2.2H4.8c-1.2,0-2.2-1-2.2-2.2v-35.2
				c0-5.2,3.7-9.7,8.8-10.8V72c0-3.6,3-6.6,6.6-6.6h61.6c3.6,0,6.6,3,6.6,6.6v20c5.1,1,8.8,5.6,8.8,10.8V138
				C95,139.3,94,140.2,92.8,140.2L92.8,140.2z M81.8,72c0-1.2-1-2.2-2.2-2.2H17.9c-1.2,0-2.2,1-2.2,2.2v19.8h4.4V83
				c0-3.6,3-6.6,6.6-6.6h13.2c3.6,0,6.6,3,6.6,6.6v8.8h4.4V83c0-3.6,3-6.6,6.6-6.6h13.2c3.6,0,6.6,3,6.6,6.6v8.8h4.4L81.8,72
				L81.8,72L81.8,72z M24.6,83v8.8h17.6V83c0-1.2-1-2.2-2.2-2.2H26.7C25.5,80.8,24.5,81.8,24.6,83L24.6,83L24.6,83z M55.4,83v8.8H73
				V83c0-1.2-1-2.2-2.2-2.2H57.5C56.3,80.8,55.3,81.8,55.4,83L55.4,83L55.4,83z M90.6,102.8c0-3.6-3-6.6-6.6-6.6H13.5
				c-3.6,0-6.6,3-6.6,6.6v11h83.6L90.6,102.8L90.6,102.8L90.6,102.8z M90.6,118.2H6.9v17.6h4.4v-6.6c0-1.2,1-2.2,2.2-2.2h70.4
				c1.2,0,2.2,1,2.2,2.2v6.6h4.4L90.6,118.2L90.6,118.2L90.6,118.2z M6.9,40.5v25H2.5V39c0-0.9,0.5-1.6,1.3-2L67.6,8.4
				c0.6-0.3,1.2-0.3,1.8,0l23.3,10.4l0.5,5l-24.7-11L6.9,40.5L6.9,40.5z M113,46.3c-11.9,0-21.5-9.6-21.5-21.5S101.1,3.3,113,3.3
				s21.5,9.6,21.5,21.5S124.9,46.3,113,46.3L113,46.3z M113,5.9c-10.4,0-18.8,8.4-18.8,18.8s8.4,18.8,18.8,18.8s18.8-8.4,18.8-18.8
				S123.4,5.9,113,5.9L113,5.9z M121.5,26.2h-7.1v7.1c0.1,0.8-0.5,1.5-1.3,1.5c-0.8,0.1-1.5-0.5-1.5-1.3c0-0.1,0-0.2,0-0.2v-7.1
				h-7.1c-0.8,0-1.4-0.6-1.4-1.4s0.6-1.4,1.4-1.4h7.1v-7.1c0-0.8,0.6-1.4,1.4-1.4s1.4,0.6,1.4,1.4v7.1h7.1c0.8,0,1.4,0.6,1.4,1.4
				S122.3,26.2,121.5,26.2L121.5,26.2L121.5,26.2z"/>
		</defs>
		<use xlink:href="#SVGID_1_"  style="overflow:visible;fill:#DDDCDC;"/>
		<clipPath id="SVGID_2_">
			<use xlink:href="#SVGID_1_"  style="overflow:visible;"/>
		</clipPath>
	</g>
</g>
</svg>
