<?xml version="1.0" encoding="iso-8859-1"?>
<!-- Generator: Adobe Illustrator 16.0.0, SVG Export Plug-In . SVG Version: 6.00 Build 0)  -->
<!DOCTYPE svg PUBLIC "-//W3C//DTD SVG 1.1//EN" "http://www.w3.org/Graphics/SVG/1.1/DTD/svg11.dtd">
<svg xmlns="http://www.w3.org/2000/svg" xmlns:xlink="http://www.w3.org/1999/xlink" version="1.1" id="Capa_1" x="0px" y="0px" width="512px" height="512px" viewBox="0 0 458.725 458.724" style="enable-background:new 0 0 458.725 458.724;" xml:space="preserve">
<g>
	<path d="M449.764,259.161l0.016-0.537c2.276,1.351,3.924,2.393,4.99,3.082c0.504,0.265,0.93,0.484,1.41,0.737l2.545-82.728   c-82.689-43.012-160.157-59.073-227.807-60.744v-0.104c-0.517,0.008-1.042,0.038-1.555,0.046c-0.519-0.008-1.044-0.038-1.553-0.046   v0.104C160.155,120.642,82.697,136.704,0,179.715l2.479,80.443c1.917-0.974,4.029-2.04,6.422-3.198   c0.184-0.084,0.395-0.192,0.575-0.269c0.097-0.052,0.203-0.1,0.299-0.144c5.873-2.854,13.078-6.196,21.401-9.799   c1.198-0.513,2.369-1.025,3.619-1.562c24.232-10.283,57.109-22.205,94.249-30.413c7.993-1.763,16.172-3.342,24.509-4.708   c-0.21-0.221-0.425-0.441-0.643-0.657c23.175-3.715,48.712-6.104,76.454-6.268c4.957,0.03,9.826,0.14,14.644,0.307   c10.503,0.23,20.882,0.927,31.053,2.023c10.681,1.03,20.931,2.356,30.762,3.938c-0.165,0.164-0.325,0.336-0.485,0.501   c8.188,1.499,16.162,3.178,23.856,5.005c13.901,3.306,26.95,7.013,38.688,10.796c20.27,6.528,38.392,13.674,53.443,20.206   c11.017,4.78,20.354,9.213,27.591,12.831c0.092,0.053,0.204,0.108,0.305,0.152C449.395,258.976,449.588,259.069,449.764,259.161z" fill="#FFFFFF"/>
	<path d="M403.189,252.2c3.863,0.445,7.818,1.014,11.87,1.72c8.997,1.547,18.442,3.662,28.425,6.56   c-1.808-0.89-3.739-1.808-5.771-2.757c-6.479-3.07-14.01-6.473-22.457-10.031c-24.898-10.515-57.587-22.319-94.019-30.46   c-6.264-1.395-12.651-2.661-19.107-3.821c-7.189,8.494-9.261,15.106-9.261,15.106l-8.568,57.386   C301.842,269.375,339.508,244.766,403.189,252.2z" fill="#FFFFFF"/>
	<path d="M347.134,290.182l-10.796,49.676c45.761-31.478,104.265-32.721,111.318-32.748c-35.943-17.549-66.6-24.329-91.674-25.415   C350.268,286.716,347.134,290.182,347.134,290.182z" fill="#FFFFFF"/>
	<path d="M449.091,266.29c-0.101-0.027-0.209-0.06-0.301-0.088c-19.396-6.136-36.952-9.51-52.754-10.844   c-2.857-0.245-5.662-0.421-8.415-0.533c-53.672-2.156-85.752,19.656-101.067,34.283c-0.397,0.369-0.782,0.75-1.15,1.118   c1.065-0.236,2.608-0.561,4.568-0.966c14.623-6.508,38.303-13.433,70.402-11.284c1.11,0.076,2.261,0.191,3.395,0.292   c23.853,2.023,52.165,9.093,84.677,24.854L449.091,266.29z" fill="#FFFFFF"/>
	<path d="M169.53,289.429c1.583,0.32,2.833,0.597,3.761,0.789c-0.389-0.377-0.802-0.773-1.212-1.158   c-15.354-14.595-47.382-36.291-100.821-34.224c-2.779,0.116-5.638,0.293-8.532,0.537c-15.813,1.318-33.372,4.709-52.788,10.828   c-0.102,0.028-0.202,0.061-0.298,0.088l0.651,36.849c32.616-15.801,60.764-22.786,83.897-24.942   c1.373-0.128,2.711-0.22,4.051-0.312c14.437-1.025,26.848-0.244,37.007,1.379C149.794,281.562,161.201,285.597,169.53,289.429z" fill="#FFFFFF"/>
	<path d="M165.861,228.524c0,0-2.045-6.558-9.161-14.996c-6.674,1.05-13.275,2.212-19.732,3.53   c-37.465,7.663-70.899,19.412-96.038,29.824C28.285,252.108,17.709,257,9.851,260.864c-0.106,0.061-0.194,0.093-0.299,0.152   c-0.18,0.084-0.336,0.16-0.517,0.261l0.034,1.142c0.164-0.052,0.336-0.096,0.503-0.16c0.098-0.028,0.194-0.06,0.294-0.092   c0.034-0.008,0.072-0.021,0.104-0.028c11.908-3.695,23.133-6.396,33.7-8.211c4.052-0.697,8.007-1.267,11.872-1.728   c63.688-7.434,101.346,17.18,118.902,33.719L165.861,228.524z" fill="#FFFFFF"/>
	<path d="M102.753,281.695c-25.073,1.086-55.728,7.866-91.674,25.415c7.101,0.027,65.574,1.286,111.3,32.732l-10.788-49.676   C111.599,290.182,108.467,286.716,102.753,281.695z" fill="#FFFFFF"/>
</g>
<g>
</g>
<g>
</g>
<g>
</g>
<g>
</g>
<g>
</g>
<g>
</g>
<g>
</g>
<g>
</g>
<g>
</g>
<g>
</g>
<g>
</g>
<g>
</g>
<g>
</g>
<g>
</g>
<g>
</g>
</svg>
